<svg width="34" height="22" viewBox="0 0 34 22" fill="none" xmlns="http://www.w3.org/2000/svg">
<path fill-rule="evenodd" clip-rule="evenodd" d="M0.0848328 6.55469C0.085583 6.38256 0.120312 6.21227 0.187028 6.05359C0.253743 5.89492 0.351133 5.75097 0.473608 5.63002C0.596084 5.50907 0.741236 5.41349 0.900737 5.34877C1.06024 5.28404 1.23095 5.25145 1.40307 5.25286L14.5299 5.35507C15.2549 5.36064 15.8767 5.95143 15.9188 6.67446L16.0037 8.12936L20.3808 1.17443C20.4713 1.02893 20.5901 0.903142 20.7303 0.80457C20.8704 0.705998 21.0289 0.636661 21.1964 0.600695C21.364 0.564728 21.537 0.562869 21.7052 0.595229C21.8735 0.627588 22.0335 0.693504 22.1757 0.789043L33.1672 8.06833C33.4582 8.26087 33.6609 8.56096 33.7308 8.90277C33.8008 9.24457 33.7323 9.60017 33.5405 9.89156L26.3601 20.8027C25.9611 21.4089 25.1383 21.5902 24.5231 21.2079L16.0037 15.9145V20.2605C16.0037 20.9855 15.4158 21.573 14.6923 21.573H1.33171C1.15963 21.5732 0.98921 21.5394 0.830269 21.4734C0.671329 21.4075 0.52701 21.3107 0.40563 21.1887C0.28425 21.0668 0.18821 20.922 0.123044 20.7627C0.0578773 20.6035 0.0248733 20.4329 0.0259342 20.2608L0.0848328 6.55469ZM2.02536 7.65293L1.99436 19.4344L14.1558 19.4464L14.1501 14.5606L13.1732 13.8848C12.8765 13.6798 12.7836 13.2598 12.967 12.948L14.2109 10.8356L14.1345 7.5955L2.02536 7.65293ZM21.673 2.96057L15.3594 12.7699L25.3614 19.0567L31.5322 9.45269L21.673 2.96057Z" fill="#F8C076"/>
<path d="M18.6406 13.4609C19.3655 13.4609 19.9531 12.8733 19.9531 12.1484C19.9531 11.4236 19.3655 10.8359 18.6406 10.8359C17.9158 10.8359 17.3281 11.4236 17.3281 12.1484C17.3281 12.8733 17.9158 13.4609 18.6406 13.4609Z" fill="#F8C076"/>
<path d="M23.0703 12.6406C23.7952 12.6406 24.3828 12.053 24.3828 11.3281C24.3828 10.6033 23.7952 10.0156 23.0703 10.0156C22.3454 10.0156 21.7578 10.6033 21.7578 11.3281C21.7578 12.053 22.3454 12.6406 23.0703 12.6406Z" fill="#F8C076"/>
<path d="M27.6641 11.8203C28.3889 11.8203 28.9766 11.2327 28.9766 10.5078C28.9766 9.78294 28.3889 9.19531 27.6641 9.19531C26.9392 9.19531 26.3516 9.78294 26.3516 10.5078C26.3516 11.2327 26.9392 11.8203 27.6641 11.8203Z" fill="#F8C076"/>
<path d="M4.20312 11.6562C4.928 11.6562 5.51562 11.0686 5.51562 10.3438C5.51562 9.61888 4.928 9.03125 4.20312 9.03125C3.47825 9.03125 2.89062 9.61888 2.89062 10.3438C2.89062 11.0686 3.47825 11.6562 4.20312 11.6562Z" fill="#F8C076"/>
<path d="M7.97656 15.1016C8.70144 15.1016 9.28906 14.5139 9.28906 13.7891C9.28906 13.0642 8.70144 12.4766 7.97656 12.4766C7.25169 12.4766 6.66406 13.0642 6.66406 13.7891C6.66406 14.5139 7.25169 15.1016 7.97656 15.1016Z" fill="#F8C076"/>
<path d="M11.5859 11.4922C12.3108 11.4922 12.8984 10.9046 12.8984 10.1797C12.8984 9.45481 12.3108 8.86719 11.5859 8.86719C10.8611 8.86719 10.2734 9.45481 10.2734 10.1797C10.2734 10.9046 10.8611 11.4922 11.5859 11.4922Z" fill="#F8C076"/>
<path d="M4.36719 18.3828C5.09206 18.3828 5.67969 17.7952 5.67969 17.0703C5.67969 16.3454 5.09206 15.7578 4.36719 15.7578C3.64231 15.7578 3.05469 16.3454 3.05469 17.0703C3.05469 17.7952 3.64231 18.3828 4.36719 18.3828Z" fill="#F8C076"/>
<path d="M11.5859 18.3828C12.3108 18.3828 12.8984 17.7952 12.8984 17.0703C12.8984 16.3454 12.3108 15.7578 11.5859 15.7578C10.8611 15.7578 10.2734 16.3454 10.2734 17.0703C10.2734 17.7952 10.8611 18.3828 11.5859 18.3828Z" fill="#F8C076"/>
</svg>
